<?xml version="1.0" encoding="utf-8"?>
<!-- Generator: Adobe Illustrator 23.0.2, SVG Export Plug-In . SVG Version: 6.00 Build 0)  -->
<svg version="1.1" id="omni3d" xmlns="http://www.w3.org/2000/svg" xmlns:xlink="http://www.w3.org/1999/xlink" x="0px" y="0px"
	 viewBox="0 0 434.38 160.13" style="enable-background:new 0 0 434.38 160.13;" xml:space="preserve">
<style type="text/css">
	.st0{fill:#231F20;}
	.st1{fill:#929497;}
	.st2{fill:#F16522;}
	.st3{fill:#FFFFFF;}
	.st4{fill:#626366;}
	.st5{opacity:0.5;fill:#F16522;}
	.st6{opacity:0.75;fill:#F16522;}
	.st7{opacity:0.5;fill:#FFFFFF;}
	.st8{opacity:0.75;fill:#FFFFFF;}
</style>
<g>
	<g>
		<path class="st0" d="M60.06,114.42c-10.39,0-14.35-4.48-14.35-11.04V79.75c0-6.56,3.96-11.04,14.35-11.04h30.2
			c10.39,0,14.35,4.48,14.35,11.04v23.64c0,6.56-3.96,11.04-14.35,11.04H60.06z M95.97,79.68c0-2.73-1.82-4.22-5.71-4.22h-30.2
			c-3.89,0-5.71,1.5-5.71,4.22v23.76c0,2.73,1.82,4.22,5.71,4.22h30.2c3.89,0,5.71-1.49,5.71-4.22V79.68z"/>
	</g>
	<g>
		<polygon class="st0" points="174.33,114.42 174.33,82.41 151.09,114.42 144.01,114.42 120.7,82.48 120.7,114.42 112.71,114.42 
			112.71,68.71 120.77,68.71 147.91,106.05 174.92,68.71 182.32,68.71 182.32,114.42 		"/>
	</g>
	<path class="st1" d="M315.82,89.62c3.24-0.65,5.39-3.64,5.39-7.6v-3.44c0-6.1-3.89-9.87-14.02-9.87H292.8l-7.46,6.75h21.84
		c4.03,0,5.39,1.04,5.39,3.58V83c0,2.53-1.36,3.57-5.39,3.57h-14.9l-7.81,6.75h22.84c3.44,0,5.84,1.04,5.84,3.89v5.72
		c0,3.7-2.4,4.74-5.84,4.74h-22.84l-7.8,6.75h30.65c11.3,0,14.48-4.67,14.48-9.87v-7.46C321.79,92.67,319.26,90.53,315.82,89.62"/>
	<g>
		<polygon class="st0" points="260.93,82.03 260.93,114.42 269.57,114.42 269.57,89.47 		"/>
	</g>
	<g>
		<polygon class="st0" points="243.74,102.67 198.22,68.71 190.75,68.71 190.75,114.42 198.29,114.42 198.29,78.84 247.05,114.42 
			251.27,114.42 251.27,73.48 243.74,67.17 		"/>
	</g>
	<g>
		<path class="st1" d="M329.9,114.42V68.71h41.88c12.93,0,16.89,4.48,16.89,13.5v19.15c0,8.57-3.96,13.05-16.89,13.05H329.9z
			 M380.03,82.21c0-5.26-1.82-6.75-8.25-6.75h-33.24v32.21h33.24c6.43,0,8.25-1.49,8.25-6.36V82.21z"/>
	</g>
	<g>
		<path class="st2" d="M269.58,76.52L269.58,76.52l20.29-18l4.92-23.19l-25.22-8.88l-22.15,7.76l-3.07,1.08l0.64,3.13l4.07,20.36
			L269.58,76.52z M267.2,68.01l-13.65-11.87l-2.91-14.32v-0.02l5.65,3.42l10.97,6.61L267.2,68.01z M269.69,47.63l-16.88-10.17
			l16.72-5.89l16.81,5.93L269.69,47.63z M285.49,56.13l-13.43,11.8l0.04-8.44l0.03-7.65h0.01l16.33-9.94L285.49,56.13z"/>
	</g>
</g>
</svg>
